<svg width="13" height="13" viewBox="0 0 13 13" fill="none" xmlns="http://www.w3.org/2000/svg">
<path d="M13 2.5C13 3.88071 11.8807 5 10.5 5C9.60249 5 8.81544 4.52705 8.37448 3.81677L4.75741 5.42436C4.91293 5.75016 5 6.11491 5 6.5C5 6.9158 4.89849 7.30789 4.7189 7.65285L8.32998 9.25777C8.76113 8.50624 9.57144 8 10.5 8C11.8807 8 13 9.11929 13 10.5C13 11.8807 11.8807 13 10.5 13C9.11929 13 8 11.8807 8 10.5C8 10.4028 8.00554 10.307 8.01633 10.2127L4.05949 8.45409C3.63195 8.79574 3.08983 9 2.5 9C1.11929 9 0 7.88071 0 6.5C0 5.11929 1.11929 4 2.5 4C3.12439 4 3.69531 4.2289 4.13344 4.60736L8.02815 2.87638C8.00961 2.75362 8 2.62793 8 2.5C8 1.11929 9.11929 0 10.5 0C11.8807 0 13 1.11929 13 2.5Z" fill="#E52121"/>
</svg>
