<svg width="49" height="41" viewBox="0 0 49 41" fill="none" xmlns="http://www.w3.org/2000/svg">
<path d="M45.5608 0L30.5879 0C29.2285 0 28.1253 1.0565 28.1253 2.35825L28.1253 16.6964C28.1253 17.9982 29.2285 19.0547 30.5879 19.0547H37.7542C37.6606 22.8091 36.7495 25.8134 35.0256 28.0726C33.6662 29.8555 31.6075 31.3317 28.8542 32.4967C27.5884 33.0297 27.0417 34.4635 27.6327 35.6615L29.4058 39.2461C29.9772 40.3969 31.3907 40.9016 32.6122 40.3969C35.8728 39.0479 38.626 37.3406 40.8719 35.2653C43.6105 32.7325 45.4869 29.8743 46.5016 26.686C47.5162 23.4976 48.0235 19.149 48.0235 13.6307V2.35825C48.0235 1.05654 46.9202 0 45.5608 0Z" fill="#EA2E2E"/>
<path d="M5.22265 40.3874C8.4438 39.0432 11.1823 37.3359 13.443 35.2653C16.2061 32.7325 18.0925 29.8838 19.1071 26.719C20.1217 23.5542 20.629 19.1915 20.629 13.6307V2.35825C20.629 1.0565 19.5257 0 18.1663 0L3.19338 0C1.83399 0 0.730723 1.0565 0.730723 2.35825L0.730723 16.6964C0.730723 17.9982 1.83399 19.0547 3.19338 19.0547H10.3597C10.2661 22.8091 9.35493 25.8134 7.63107 28.0726C6.27169 29.8555 4.21291 31.3317 1.45967 32.4967C0.193865 33.0297 -0.352844 34.4635 0.238193 35.6615L2.00638 39.2366C2.57776 40.3874 4.00117 40.8968 5.22265 40.3874Z" fill="#EA2E2E"/>
</svg>
